PathFileType	4	(X/Y/Z)	H:\MAC\Pilotos\Biomecanica2_gait_2020\Trimmed_walk1.trc
DataRate	CameraRate	NumFrames	NumMarkers	Units	OrigDataRate	OrigDataStartFrame	OrigNumFrames
150.00	150.00	       4	28	mm	150.00	137	       364
Frame#	Time	R.ASIS			L.ASIS			R.PSIS			L.PSIS			L.Iliac.Crest			R.Iliac.Crest			R.GTR			R.Knee			R.HF			R.TT			R.Ankle			R.Heel			R.MT1			R.MT5			L.GTR			L.Knee			L.HF			L.TT			L.Ankle			L.Heel			L.MT1			L.MT5			R.Knee.Medial			R.Ankle.Medial			R.MT2			L.Knee.Medial			L.Ankle.Medial			L.MT2			
		X1	Y1	Z1	X2	Y2	Z2	X3	Y3	Z3	X4	Y4	Z4	X5	Y5	Z5	X6	Y6	Z6	X7	Y7	Z7	X8	Y8	Z8	X9	Y9	Z9	X10	Y10	Z10	X11	Y11	Z11	X12	Y12	Z12	X13	Y13	Z13	X14	Y14	Z14	X15	Y15	Z15	X16	Y16	Z16	X17	Y17	Z17	X18	Y18	Z18	X19	Y19	Z19	X20	Y20	Z20	X21	Y21	Z21	X22	Y22	Z22	X23	Y23	Z23	X24	Y24	Z24	X25	Y25	Z25	X26	Y26	Z26	X27	Y27	Z27	X28	Y28	Z28	

137	0.907	938.47119	1036.87781	-448.98502	911.17041	1026.38684	-221.35336	738.40790	1059.51306	-391.98145	731.26520	1057.97253	-294.21741	829.89575	1086.66724	-183.16869	850.06335	1094.12329	-503.10022	856.29462	959.62579	-531.95850	944.01831	533.14264	-465.20633	944.01233	467.46014	-466.32928	1006.05347	449.33188	-408.58691	928.89063	67.41186	-427.02039	870.21057	41.23111	-383.18048	1088.71423	44.49069	-351.68472	1052.32080	34.29559	-434.64578	825.19141	926.56378	-165.53239	797.80347	517.57855	-175.14784	759.71552	474.92084	-171.25471	801.60358	409.25345	-215.85114	474.15015	223.27945	-227.37997	426.17627	238.88484	-292.15463	533.27856	63.74243	-272.10620	499.12234	96.18591	-199.70198	941.28607	529.95435	-327.29315	938.74976	89.73453	-336.17407	1088.38611	38.13071	-383.77945	844.14569	489.85873	-294.39749	521.27588	195.83212	-308.19241	525.86554	65.35335	-236.31921	
138	0.913	946.01355	1037.75330	-449.54907	918.78619	1027.60718	-221.94229	745.92090	1060.46606	-392.83014	738.67542	1058.33142	-295.14975	836.59021	1086.89331	-183.82750	857.74847	1095.05688	-504.14508	863.67114	960.71875	-532.76471	946.11853	533.13715	-466.09802	945.51697	467.35120	-467.15170	1007.95563	449.00934	-409.91669	928.70404	67.28645	-427.29840	870.15265	41.26575	-383.29437	1088.66028	44.54655	-352.00763	1052.28406	34.13856	-435.02328	833.72144	926.78589	-166.26245	813.68610	518.12695	-175.37140	775.90259	475.71783	-171.50453	817.73334	409.90958	-216.22166	489.23904	226.82561	-228.95341	441.04724	241.65703	-293.90530	547.25403	66.65306	-270.97937	513.76599	100.64176	-198.60089	942.37842	530.96600	-329.59814	938.87549	89.91080	-336.50400	1088.38672	38.08772	-384.05258	859.93530	490.79349	-294.78680	536.31049	198.01927	-308.34305	540.26636	68.78701	-234.67712	
139	0.920	953.54492	1038.52673	-450.07257	926.08838	1028.54053	-222.35805	753.43036	1061.42346	-393.77393	745.97675	1058.77600	-296.19321	843.21228	1087.15479	-184.58202	865.80334	1095.70996	-504.51352	870.98834	961.68372	-533.67706	948.03564	533.12842	-466.95508	946.69220	467.27301	-467.90591	1009.70081	448.74432	-411.25366	928.43115	67.27312	-427.72208	870.08508	41.30331	-383.39780	1088.75879	44.74697	-352.37274	1052.23145	33.97428	-435.39587	841.37061	927.57336	-166.86531	829.30524	519.21252	-175.65205	791.76678	476.91284	-171.92003	834.21985	410.81290	-216.52660	504.12222	230.17874	-230.22664	456.20251	243.71255	-295.58432	562.78394	68.48278	-269.07410	529.32837	104.47440	-198.36133	943.93457	530.96356	-330.73062	939.01208	89.93021	-336.83362	1088.03723	37.99147	-384.42026	875.85553	492.13574	-295.10526	551.71411	199.86880	-309.12805	555.65283	71.88849	-233.91801	
140	0.927	960.92950	1039.24390	-450.66904	933.12018	1029.44263	-222.75536	760.82013	1062.38257	-394.71744	753.31354	1059.37878	-297.24173	849.81635	1087.54517	-185.20715	873.60791	1096.61328	-505.34534	878.30457	962.44434	-534.60626	949.79828	533.13409	-467.72134	947.63995	467.24945	-468.57141	1011.09039	448.42184	-412.50290	928.27734	67.20622	-427.93726	870.00250	41.34064	-383.49731	1088.66003	44.85165	-352.71570	1052.16724	33.81713	-435.73376	849.41144	928.38403	-167.47662	844.82208	520.61206	-176.03908	807.70300	478.30087	-172.38808	850.46368	412.00632	-216.76566	520.08765	232.30014	-231.49039	471.75436	245.20427	-297.11935	578.84985	70.42491	-268.21832	545.23999	107.56293	-197.62108	945.64368	530.90765	-331.48541	939.15131	90.08684	-337.17532	1087.97119	37.95692	-384.69455	891.71783	493.84964	-295.48935	567.59302	201.48990	-309.85681	571.71136	74.10081	-232.87465	
